<svg width="147" height="38" viewBox="0 0 147 38" fill="none" xmlns="http://www.w3.org/2000/svg">
<path d="M23.7553 13.5949H19.488L16.4677 21.8801L13.3919 13.5949H9.15234L14.8051 27.2003H18.1303L23.7553 13.5949Z" fill="white"/>
<path d="M36.7459 19.8018C36.7459 16.1719 33.8641 13.3178 30.1787 13.3178C26.2163 13.3178 23.1128 16.3658 23.1128 20.3283C23.1128 24.3739 26.2717 27.4774 30.2619 27.4774C33.0882 27.4774 35.3604 26.4244 36.358 24.6233L33.3099 22.7668C32.8389 23.598 31.5642 24.1522 30.345 24.1522C28.4884 24.1522 27.2138 23.1824 26.8536 21.3259H36.6351C36.7182 20.7994 36.7459 20.2729 36.7459 19.8018ZM26.909 18.832C27.2692 17.3634 28.3499 16.4767 29.9848 16.4767C31.4257 16.4767 32.6726 17.4742 32.8389 18.832H26.909Z" fill="white"/>
<path d="M42.1439 7.80358H38.2368V27.2003H42.1439V7.80358Z" fill="white"/>
<path d="M50.5767 13.3178C46.5588 13.3178 43.5107 16.3658 43.5107 20.4114C43.5107 24.457 46.5588 27.4774 50.5767 27.4774C54.5669 27.4774 57.6426 24.457 57.6426 20.4114C57.6426 16.3658 54.5669 13.3178 50.5767 13.3178ZM50.5767 17.0586C52.4055 17.0586 53.8187 18.4718 53.8187 20.4114C53.8187 22.2957 52.4055 23.7366 50.5767 23.7366C48.7201 23.7366 47.3346 22.2957 47.3346 20.4114C47.3346 18.4718 48.7201 17.0586 50.5767 17.0586Z" fill="white"/>
<path d="M71.9817 23.5703L68.518 22.0186C67.9915 23.0993 66.9108 23.7366 65.5808 23.7366C63.6411 23.7366 62.2556 22.2957 62.2556 20.4114C62.2556 18.4995 63.6411 17.0586 65.5808 17.0586C66.7723 17.0586 67.7698 17.6405 68.2686 18.5549L71.566 16.6706C70.4854 14.6478 68.2409 13.3178 65.5808 13.3178C61.5075 13.3178 58.4317 16.3658 58.4317 20.4114C58.4317 24.457 61.5075 27.4774 65.5808 27.4774C68.4903 27.4774 70.9564 25.9257 71.9817 23.5703Z" fill="white"/>
<path d="M75.1436 7C73.8412 7 72.7606 8.08067 72.7606 9.35532C72.7606 10.6577 73.8412 11.7383 75.1436 11.7383C76.446 11.7383 77.5266 10.6577 77.5266 9.35532C77.5266 8.08067 76.446 7 75.1436 7ZM73.2039 13.5949V27.2003H77.111V13.5949H73.2039Z" fill="white"/>
<path d="M87.8127 23.5703C87.5079 23.6812 86.9814 23.7643 86.5935 23.7643C85.4574 23.7643 84.4876 22.9607 84.4876 21.6861V17.308H87.8404V13.5949H84.4876V10.0203H80.5805V13.5949H78.059V17.308H80.5805V21.8801C80.5805 25.3992 82.825 27.422 86.0116 27.422C86.7321 27.422 87.5079 27.2834 88.0067 27.034L87.8127 23.5703Z" fill="white"/>
<path d="M98.5775 13.5949L95.5571 21.5475L92.5368 13.5949H88.3249L93.562 26.0919L91.0405 31.717H95.2246L102.789 13.5949H98.5775Z" fill="white"/>
<path fill-rule="evenodd" clip-rule="evenodd" d="M114.152 4C113.048 4 112.152 4.89543 112.152 6V26C112.152 30.4183 115.734 34 120.152 34H134.152C138.571 34 142.152 30.4183 142.152 26V12C142.152 7.58172 138.571 4 134.152 4H114.152ZM120.152 15.7888C120.152 12.0758 123.311 9 127.107 9C130.931 9 134.063 12.0758 134.063 15.7888C134.063 17.0635 133.591 18.7815 132.539 20.4718L127.44 28.6738H122.757L126.858 22.1898C126.692 22.2175 126.526 22.2175 126.359 22.2175C122.812 22.2175 120.152 19.5019 120.152 15.7888ZM124.143 15.8166C124.143 17.4514 125.445 18.7538 127.135 18.7538C128.77 18.7538 130.045 17.4514 130.045 15.8166C130.045 14.1817 128.742 12.9071 127.107 12.9071C125.445 12.9071 124.143 14.1817 124.143 15.8166Z" fill="url(#paint0_linear)"/>
<defs>
<linearGradient id="paint0_linear" x1="127.152" y1="4" x2="127.152" y2="34" gradientUnits="userSpaceOnUse">
<stop stop-color="#CDFFAE"/>
<stop offset="1" stop-color="#828FD6"/>
</linearGradient>
</defs>
</svg>
